<?xml version="1.0" encoding="utf-8"?>
<!-- Generator: Adobe Illustrator 18.0.0, SVG Export Plug-In . SVG Version: 6.00 Build 0)  -->
<!DOCTYPE svg PUBLIC "-//W3C//DTD SVG 1.1//EN" "http://www.w3.org/Graphics/SVG/1.1/DTD/svg11.dtd">
<svg version="1.1" id="Layer_1" xmlns="http://www.w3.org/2000/svg" xmlns:xlink="http://www.w3.org/1999/xlink" x="0px" y="0px"
	 viewBox="0 0 45.4 45.4" enable-background="new 0 0 45.4 45.4" xml:space="preserve">
<g>
	<path fill="#FFFFFF" stroke="#FFFFFF" stroke-width="1.5" stroke-miterlimit="10" d="M43.9,28c-0.3-1.1-0.8-2.1-1.5-3.1
		c-0.7-1-1.5-1.9-2.5-2.6c-0.6-0.5-1.2-0.8-1.9-1.2c0.2-0.1,0.3-0.3,0.5-0.4c2.3-2.1,3.2-4.4,3.6-6c0.2-0.8,0.3-1.5,0.3-1.9
		c0-0.4,0-0.7,0-0.7l0,0c0,0,0-0.2,0-0.7c0-0.4-0.1-1.1-0.3-1.9c-0.4-1.6-1.3-3.9-3.6-6c-0.6-0.5-1.2-1-2-1.4
		c-0.7-0.4-1.6-0.8-2.6-1c-1.7-0.5-3.9-0.6-6,0.1c-1.1,0.3-2.1,0.8-3.1,1.5c-1,0.7-1.9,1.5-2.6,2.5c-0.4,0.5-0.7,1-1,1.6
		c0-0.1-0.1-0.1-0.1-0.2c-2.1-2.3-4.4-3.2-6-3.6c-0.8-0.2-1.5-0.3-1.9-0.3c-0.4,0-0.7,0-0.7,0l0,0c0,0-0.2,0-0.7,0
		c-0.4,0-1.1,0.1-1.9,0.3C8.3,3.3,6,4.2,3.9,6.5c-0.5,0.6-1,1.2-1.4,2C2,9.2,1.7,10,1.4,11.1c-0.5,1.7-0.6,3.9,0.1,6
		c0.3,1.1,0.8,2.1,1.5,3.1c0.7,1,1.5,1.9,2.5,2.6c0.5,0.4,1.1,0.7,1.6,1c-0.2,0.2-0.4,0.3-0.6,0.5c-2.3,2.1-3.2,4.4-3.6,6
		c-0.2,0.8-0.3,1.5-0.3,1.9c0,0.4,0,0.7,0,0.7l0,0c0,0,0,0.2,0,0.7c0,0.4,0.1,1.1,0.3,1.9c0.4,1.6,1.3,3.9,3.6,6
		c0.6,0.5,1.2,1,2,1.4c0.7,0.4,1.6,0.8,2.6,1c1.7,0.5,3.9,0.6,6-0.1c1.1-0.3,2.1-0.8,3.1-1.5c1-0.7,1.9-1.5,2.6-2.5
		c0.5-0.6,0.8-1.2,1.2-1.9c0.1,0.2,0.3,0.3,0.4,0.5c2.1,2.3,4.4,3.2,6,3.6c0.8,0.2,1.5,0.3,1.9,0.3c0.4,0,0.7,0,0.7,0l0,0
		c0,0,0.2,0,0.7,0c0.4,0,1.1-0.1,1.9-0.3c1.6-0.4,3.9-1.3,6-3.6c0.5-0.6,1-1.2,1.4-2c0.4-0.7,0.8-1.6,1-2.6
		C44.4,32.4,44.5,30.1,43.9,28z M24.2,9.5c0.3-0.8,0.6-1.6,1.1-2.4c1-1.5,2.3-2.6,3.8-3.3c1.5-0.7,3.2-0.9,4.7-0.8
		c1.5,0.2,2.9,0.7,4,1.4c1.1,0.7,2,1.7,2.6,2.6c0.6,0.9,1,1.8,1.2,2.6c0.1,0.4,0.2,0.7,0.2,1c0.1,0.3,0.1,0.6,0.1,0.8
		c0,0.4,0,0.6,0,0.6c0,0,0,0.2,0,0.7c0,0.2,0,0.5-0.1,0.8c0,0.3-0.1,0.6-0.2,1c-0.2,0.8-0.6,1.7-1.2,2.6c-0.6,0.9-1.5,1.8-2.6,2.6
		c-0.4,0.3-0.9,0.5-1.4,0.7c-0.5-0.2-1.1-0.3-1.7-0.4l-0.5-0.1c-0.2,0-0.3,0-0.4,0l-0.7,0l-0.2,0l-0.1,0l-0.1,0l-0.2,0l-0.5,0
		c-0.3,0-0.6,0.1-0.9,0.1c-0.6,0.1-1.2,0.2-1.7,0.4c0,0,0,0-0.1,0c-0.8-1.9-2.4-3.4-4.3-4c-0.3-0.5-0.5-1.1-0.7-1.7
		c-0.2-0.8-0.4-1.7-0.4-2.6C23.8,11.2,23.9,10.3,24.2,9.5z M4.2,15.9c-0.7-1.5-0.9-3.2-0.8-4.7c0.2-1.5,0.7-2.9,1.4-4
		c0.7-1.1,1.7-2,2.6-2.6C8.3,4,9.3,3.6,10,3.4c0.4-0.1,0.7-0.2,1-0.2c0.3-0.1,0.6-0.1,0.8-0.1c0.4,0,0.6,0,0.6,0c0,0,0.2,0,0.7,0
		c0.2,0,0.5,0,0.8,0.1c0.3,0,0.6,0.1,1,0.2c0.8,0.2,1.7,0.6,2.6,1.2C18.4,5.2,19.3,6,20,7.2c0.2,0.3,0.4,0.6,0.5,0.9
		c0,0.1-0.1,0.2-0.1,0.3C20.2,9,20,9.6,20,10.3l-0.1,0.5c0,0.2,0,0.3,0,0.4l0,0.3l0,0.2l0,0.4c0,1.3,0.2,2.5,0.6,3.7
		c0,0.1,0.1,0.2,0.1,0.4c0,0,0,0,0,0c-2.2,0.6-4,2.2-4.9,4.4c-0.2,0.1-0.4,0.2-0.6,0.2c-0.8,0.2-1.7,0.4-2.6,0.4
		c-0.9,0-1.8-0.1-2.6-0.4c-0.8-0.3-1.6-0.6-2.4-1.1C6,18.8,4.9,17.4,4.2,15.9z M20.8,35.6c-0.3,0.8-0.6,1.6-1.1,2.4
		c-1,1.5-2.3,2.6-3.8,3.3c-1.5,0.7-3.2,0.9-4.7,0.8c-1.5-0.2-2.9-0.7-4-1.4c-1.1-0.7-2-1.7-2.6-2.6c-0.6-0.9-1-1.8-1.2-2.6
		c-0.1-0.4-0.2-0.7-0.2-1C3,34.1,3,33.8,3,33.6C3,33.2,3,33,3,33c0,0,0-0.2,0-0.7c0-0.2,0-0.5,0.1-0.8c0-0.3,0.1-0.6,0.2-1
		c0.2-0.8,0.6-1.7,1.2-2.6C5.1,27,6,26.1,7.1,25.4c0.5-0.3,1-0.6,1.6-0.8c0,0,0,0,0.1,0c0.6,0.2,1.2,0.4,1.9,0.5l0.5,0.1
		c0.2,0,0.3,0,0.4,0l0.3,0l0.2,0l0.4,0c1,0,1.9-0.1,2.9-0.4c0.6,2.7,2.7,4.9,5.5,5.6c0.2,0.8,0.3,1.7,0.4,2.5
		C21.1,33.9,21,34.7,20.8,35.6z M22.5,28.5c-2.9,0-5.2-2.3-5.2-5.2c0-2.9,2.3-5.2,5.2-5.2s5.2,2.3,5.2,5.2
		C27.7,26.2,25.3,28.5,22.5,28.5z M41.9,33.9c-0.2,1.5-0.7,2.9-1.4,4c-0.7,1.1-1.7,2-2.6,2.6c-0.9,0.6-1.8,1-2.6,1.2
		c-0.4,0.1-0.7,0.2-1,0.2C34,42,33.8,42,33.5,42c-0.4,0-0.6,0-0.6,0c0,0-0.2,0-0.7,0c-0.2,0-0.5,0-0.8-0.1c-0.3,0-0.6-0.1-1-0.2
		c-0.8-0.2-1.7-0.6-2.6-1.2c-0.9-0.6-1.8-1.5-2.6-2.6c-0.3-0.4-0.5-0.9-0.7-1.4c0.2-0.5,0.3-1.1,0.4-1.7l0.1-0.5c0-0.2,0-0.3,0-0.4
		l0-0.7l0-0.2l0-0.1l0-0.1l0-0.2l0-0.5c0-0.3-0.1-0.6-0.1-0.9c0-0.3-0.1-0.6-0.2-0.8c2.5-0.9,4.5-3.1,4.9-5.8
		c0.2-0.1,0.4-0.2,0.6-0.2c0.8-0.2,1.7-0.4,2.6-0.4c0.9,0,1.8,0.1,2.6,0.4c0.8,0.3,1.6,0.6,2.4,1.1c1.5,1,2.6,2.3,3.3,3.8
		C41.9,30.7,42.1,32.3,41.9,33.9z"/>
	<circle fill="#FFFFFF" stroke="#FFFFFF" stroke-width="1.5" stroke-miterlimit="10" cx="22.5" cy="23.3" r="1.9"/>
</g>
</svg>
